<?xml version="1.0" encoding="UTF-8" ?>
<!DOCTYPE svg PUBLIC "-//W3C//DTD SVG 1.1//EN" "http://www.w3.org/Graphics/SVG/1.1/DTD/svg11.dtd">
<svg width="1722pt" height="580pt" viewBox="0 0 1722 580" version="1.1" xmlns="http://www.w3.org/2000/svg">
<g id="#525252ff">
<path fill="#525252" opacity="1.00" d=" M 254.95 57.93 C 329.63 20.88 422.37 23.64 494.63 65.25 C 479.18 78.48 470.37 98.63 471.37 118.97 C 418.24 86.43 349.58 80.80 292.12 105.08 C 239.24 126.17 197.15 171.58 178.98 225.41 C 166.78 209.17 146.96 199.39 126.68 199.26 C 149.15 138.02 196.20 86.25 254.95 57.93 Z" />
<path fill="#525252" opacity="1.00" d=" M 590.11 51.06 C 601.62 47.08 615.15 52.29 621.21 62.80 C 656.27 111.53 677.46 170.14 681.23 230.07 C 682.34 241.31 675.04 252.64 664.42 256.41 C 641.69 264.73 618.94 273.02 596.18 281.25 C 577.95 287.75 555.59 279.82 546.26 262.71 C 537.89 249.47 538.58 231.74 546.99 218.69 C 529.68 213.33 516.98 196.14 517.31 177.97 C 517.38 170.00 520.29 162.43 523.98 155.48 C 507.26 150.65 495.01 134.24 494.48 116.96 C 493.83 102.12 501.77 87.23 514.44 79.50 C 519.49 76.46 525.15 74.71 530.64 72.67 C 550.47 65.48 570.27 58.21 590.11 51.06 Z" />
<path fill="#525252" opacity="1.00" d=" M 1519.53 155.04 C 1533.90 155.08 1548.30 154.68 1562.67 155.24 C 1562.77 223.84 1562.66 292.43 1562.72 361.03 C 1562.22 377.88 1554.94 394.95 1541.36 405.34 C 1526.89 416.78 1507.97 420.21 1490.00 421.04 C 1472.24 422.03 1454.45 418.98 1437.65 413.34 C 1425.88 409.43 1414.00 405.14 1403.86 397.84 C 1409.63 388.11 1415.73 378.57 1421.91 369.08 C 1431.99 375.07 1443.36 378.37 1454.63 381.31 C 1473.03 386.04 1495.39 387.72 1511.00 374.99 C 1515.85 370.84 1517.62 364.40 1518.93 358.41 C 1519.79 353.99 1519.74 349.47 1519.69 345.00 C 1519.54 281.83 1519.84 218.66 1519.54 155.49 L 1519.53 155.04 Z" />
<path fill="#525252" opacity="1.00" d=" M 1136.41 191.40 C 1150.22 168.65 1176.96 156.62 1202.96 156.26 C 1223.90 156.77 1246.29 157.94 1264.72 169.07 C 1259.49 179.85 1254.13 190.61 1248.06 200.95 C 1236.72 192.87 1222.57 191.18 1209.00 192.00 C 1191.52 191.31 1173.97 202.63 1168.43 219.40 C 1164.52 231.93 1169.23 246.36 1179.60 254.38 C 1195.48 267.98 1215.83 274.26 1233.95 284.11 C 1250.23 293.06 1265.53 306.16 1271.95 324.10 C 1279.18 346.13 1275.77 371.84 1261.22 390.19 C 1248.21 407.57 1227.24 417.74 1205.94 420.16 C 1194.36 421.75 1182.66 420.69 1171.09 419.68 C 1154.61 417.51 1137.43 413.25 1124.57 402.13 C 1127.25 392.13 1129.46 382.01 1132.17 372.02 C 1148.02 379.20 1164.89 384.29 1182.15 386.63 C 1195.76 387.84 1210.57 387.29 1222.18 379.19 C 1233.48 370.94 1236.80 355.69 1235.29 342.47 C 1232.79 329.13 1220.97 320.59 1210.16 313.89 C 1186.78 299.93 1159.46 290.99 1141.33 269.62 C 1121.96 248.70 1122.30 215.05 1136.41 191.40 Z" />
<path fill="#525252" opacity="1.00" d=" M 1319.62 160.61 C 1334.04 160.50 1348.47 160.48 1362.90 160.62 C 1362.88 246.94 1363.00 333.27 1362.84 419.60 C 1348.40 419.56 1333.95 419.93 1319.53 419.41 C 1319.69 333.14 1319.50 246.87 1319.62 160.61 Z" />
<path fill="#525252" opacity="1.00" d=" M 1625.81 160.67 C 1640.34 160.42 1654.88 160.51 1669.41 160.63 C 1669.51 246.89 1669.38 333.16 1669.48 419.42 C 1655.66 419.90 1641.82 419.57 1627.99 419.61 C 1626.28 420.01 1625.47 418.60 1625.79 417.10 C 1625.81 331.62 1625.76 246.15 1625.81 160.67 Z" />
<path fill="#525252" opacity="1.00" d=" M 112.08 225.02 C 125.51 220.05 141.34 222.43 152.59 231.35 C 169.57 243.97 173.99 269.69 162.25 287.34 C 176.88 291.88 188.47 304.87 191.13 319.98 C 193.50 330.43 190.35 341.26 185.18 350.38 C 200.49 354.96 212.12 368.97 214.38 384.70 C 217.31 403.43 205.72 423.32 187.87 429.83 C 165.18 438.24 142.40 446.41 119.67 454.71 C 108.00 459.05 94.03 453.80 87.90 443.02 C 52.89 394.36 31.79 335.83 27.95 276.00 C 26.84 264.77 34.04 253.44 44.63 249.61 C 67.09 241.34 89.60 233.22 112.08 225.02 Z" />
<path fill="#525252" opacity="1.00" d=" M 332.32 236.31 C 371.17 215.63 421.54 219.74 456.47 246.48 C 474.80 259.42 498.40 267.11 520.81 262.90 C 529.87 289.24 556.97 308.13 584.94 306.39 C 599.10 306.47 611.83 299.61 625.01 295.40 C 624.43 352.78 602.57 409.14 566.39 453.46 C 539.67 484.97 505.92 510.86 467.61 526.62 C 400.40 555.31 320.80 553.23 255.28 520.79 C 224.60 506.07 196.90 485.00 174.59 459.31 C 182.93 456.03 191.52 453.39 199.75 449.84 C 219.91 440.83 234.55 420.90 237.22 398.99 C 239.12 388.35 236.91 377.54 233.72 367.38 C 253.43 356.45 266.39 335.55 272.15 314.15 C 279.49 281.00 302.21 251.89 332.32 236.31 M 426.25 312.19 C 361.64 315.98 301.43 360.14 278.95 420.89 C 271.88 440.96 281.10 464.94 299.42 475.54 C 308.32 480.41 318.29 482.76 328.18 484.69 C 376.59 494.63 428.71 485.84 470.85 459.91 C 496.66 444.66 518.66 423.08 534.95 397.97 C 545.42 382.04 544.91 359.95 533.23 344.79 C 527.09 335.91 517.22 330.71 507.58 326.48 C 482.19 315.12 453.97 310.31 426.25 312.19 Z" />
</g>
<g id="#df474eff">
<path fill="#df474e" opacity="1.00" d=" M 1518.95 165.00 C 1519.04 161.83 1518.49 158.55 1519.54 155.49 C 1519.84 218.66 1519.54 281.83 1519.69 345.00 C 1519.74 349.47 1519.79 353.99 1518.93 358.41 C 1518.98 293.94 1518.95 229.47 1518.95 165.00 Z" />
<path fill="#df474e" opacity="1.00" d=" M 811.95 162.95 C 815.63 162.77 819.43 163.32 823.00 162.09 C 828.09 163.78 833.52 162.27 838.71 163.28 C 860.04 166.90 882.08 172.18 899.83 185.16 C 892.59 198.54 885.00 211.75 877.24 224.83 C 859.65 215.34 840.54 205.29 819.92 207.05 C 812.71 208.07 804.31 210.69 800.89 217.73 C 795.88 231.16 802.85 246.89 815.06 253.83 C 837.22 267.47 864.53 272.67 883.39 291.61 C 904.13 312.16 907.11 345.70 895.82 371.73 C 888.99 387.38 876.79 400.88 861.38 408.45 C 842.60 419.20 820.04 420.51 798.98 417.86 C 775.42 414.31 752.76 405.54 732.70 392.71 C 739.04 378.36 745.76 364.17 752.15 349.84 C 769.72 360.36 788.39 369.74 808.44 374.46 C 818.04 375.91 828.60 374.42 836.62 368.66 C 846.17 360.14 847.50 345.15 843.33 333.66 C 838.07 322.02 825.01 317.59 814.14 312.88 C 790.88 302.75 765.26 292.22 751.38 269.63 C 738.16 246.85 738.24 215.82 754.50 194.52 C 767.86 176.16 789.76 165.64 811.95 162.95 Z" />
<path fill="#df474e" opacity="1.00" d=" M 928.18 165.90 C 979.49 165.94 1030.80 165.85 1082.11 165.94 C 1082.08 179.64 1082.22 193.35 1082.06 207.04 C 1082.39 209.48 1079.53 208.65 1078.05 208.90 C 1046.05 208.87 1014.05 208.87 982.05 208.90 C 981.71 227.53 982.19 246.22 982.03 264.89 C 1009.79 264.94 1037.55 264.81 1065.31 264.95 C 1062.64 279.24 1060.71 293.67 1057.92 307.94 C 1032.62 308.08 1007.32 307.95 982.01 308.01 C 982.05 329.97 981.97 352.11 981.98 373.96 C 1017.04 373.87 1052.11 373.92 1087.18 373.94 C 1087.25 388.26 1087.23 402.58 1087.19 416.90 C 1034.19 417.09 981.18 417.02 928.17 416.94 C 928.05 333.26 928.03 249.58 928.18 165.90 Z" />
</g>
</svg>
